<?xml version="1.0" encoding="UTF-8" standalone="no"?>
<!-- Created with Inkscape (http://www.inkscape.org/) -->

<svg
   xmlns:dc="http://purl.org/dc/elements/1.1/"
   xmlns:cc="http://creativecommons.org/ns#"
   xmlns:rdf="http://www.w3.org/1999/02/22-rdf-syntax-ns#"
   xmlns:svg="http://www.w3.org/2000/svg"
   xmlns="http://www.w3.org/2000/svg"
   xmlns:sodipodi="http://sodipodi.sourceforge.net/DTD/sodipodi-0.dtd"
   xmlns:inkscape="http://www.inkscape.org/namespaces/inkscape"
   id="svg2"
   version="1.1"
   inkscape:version="0.48.3.1 r9886"
   width="256.85999"
   height="256.85999"
   xml:space="preserve"
   sodipodi:docname="commotion_mid.svg"><metadata
     id="metadata8"><rdf:RDF><cc:Work
         rdf:about=""><dc:format>image/svg+xml</dc:format><dc:type
           rdf:resource="http://purl.org/dc/dcmitype/StillImage" /><dc:title /></cc:Work></rdf:RDF></metadata><defs
     id="defs6"><clipPath
       clipPathUnits="userSpaceOnUse"
       id="clipPath18"><path
         d="M 0,1876.84 0,0 l 2054.93,0 0,1876.84 -2054.93,0 z"
         id="path20"
         inkscape:connector-curvature="0" /></clipPath></defs><sodipodi:namedview
     pagecolor="#ffffff"
     bordercolor="#666666"
     borderopacity="1"
     objecttolerance="10"
     gridtolerance="10"
     guidetolerance="10"
     inkscape:pageopacity="0"
     inkscape:pageshadow="2"
     inkscape:window-width="1920"
     inkscape:window-height="1030"
     id="namedview4"
     showgrid="false"
     inkscape:zoom="1.422653"
     inkscape:cx="101.45733"
     inkscape:cy="147.92805"
     inkscape:window-x="0"
     inkscape:window-y="25"
     inkscape:window-maximized="1"
     inkscape:current-layer="g10" /><g
     id="g10"
     inkscape:groupmode="layer"
     inkscape:label="ink_ext_XXXXXX"
     transform="matrix(1.25,0,0,-1.25,0,256.85999)"><g
       id="g12"
       transform="matrix(0.1,0,0,0.1,0,8)"><g
         id="g14"><g
           id="g16"
           clip-path="url(#clipPath18)"><path
             d="m 1464.81,993.859 296.64,808.781 23.04,-8.44 -278.5,-759.35 466.35,168.59 8.34,-23.09 -515.87,-186.491"
             style="fill:#f24f9b;fill-opacity:1;fill-rule:nonzero;stroke:none"
             id="path22"
             inkscape:connector-curvature="0" /><path
             d="M 1682.58,75.7383 1475.34,1003.09 77.1055,1152.32 l 2.6054,24.41 1415.7491,-151.11 1.91,-8.59 209.15,-935.9402 -23.94,-5.3515"
             style="fill:#f24f9b;fill-opacity:1;fill-rule:nonzero;stroke:none"
             id="path24"
             inkscape:connector-curvature="0" /><path
             d="M 105.066,1161.39 1686.93,98.3203 1963.73,1191.41 1765.37,1782.48 105.066,1161.39 z M 1702.17,58.5117 51.7461,1167.66 l 1728.8239,646.7 208.73,-621.98 -0.89,-3.5 L 1702.17,58.5117"
             style="fill:#f24f9b;fill-opacity:1;fill-rule:nonzero;stroke:none"
             id="path26"
             inkscape:connector-curvature="0" /><path
             d="m 136.848,1164.53 c 0,-32.28 -26.141,-58.43 -58.4261,-58.43 -32.25,0 -58.4531,26.15 -58.4531,58.43 0,32.25 26.2031,58.44 58.4531,58.44 32.2851,0 58.4261,-26.19 58.4261,-58.44"
             style="fill:#ffffff;fill-opacity:1;fill-rule:nonzero;stroke:none"
             id="path28"
             inkscape:connector-curvature="0" /><path
             d="m 78.4219,1203 c -21.2149,0 -38.4805,-17.26 -38.4805,-38.47 0,-21.21 17.2656,-38.46 38.4805,-38.46 21.2031,0 38.4531,17.25 38.4531,38.46 0,21.21 -17.25,38.47 -38.4531,38.47 z m 0,-116.87 C 35.1797,1086.13 0,1121.3 0,1164.53 c 0,43.24 35.1797,78.42 78.4219,78.42 43.2261,0 78.3941,-35.18 78.3941,-78.42 0,-43.23 -35.168,-78.4 -78.3941,-78.4"
             style="fill:#f24f9b;fill-opacity:1;fill-rule:nonzero;stroke:none"
             id="path30"
             inkscape:connector-curvature="0" /><path
             d="m 1831.39,1798.42 c 0,-32.29 -26.14,-58.42 -58.42,-58.42 -32.24,0 -58.42,26.13 -58.42,58.42 0,32.25 26.18,58.45 58.42,58.45 32.28,0 58.42,-26.2 58.42,-58.45"
             style="fill:#ffffff;fill-opacity:1;fill-rule:nonzero;stroke:none"
             id="path32"
             inkscape:connector-curvature="0" /><path
             d="m 1772.97,1836.9 c -21.2,0 -38.45,-17.27 -38.45,-38.48 0,-21.21 17.25,-38.46 38.45,-38.46 21.2,0 38.45,17.25 38.45,38.46 0,21.21 -17.25,38.48 -38.45,38.48 z m 0,-116.88 c -43.22,0 -78.39,35.17 -78.39,78.4 0,43.24 35.17,78.42 78.39,78.42 43.22,0 78.39,-35.18 78.39,-78.42 0,-43.23 -35.17,-78.4 -78.39,-78.4"
             style="fill:#f24f9b;fill-opacity:1;fill-rule:nonzero;stroke:none"
             id="path34"
             inkscape:connector-curvature="0" /><path
             d="m 1753,78.3906 c 0,-32.2812 -26.13,-58.4218 -58.42,-58.4218 -32.26,0 -58.45,26.1406 -58.45,58.4218 0,32.2574 26.19,58.4494 58.45,58.4494 32.29,0 58.42,-26.192 58.42,-58.4494"
             style="fill:#ffffff;fill-opacity:1;fill-rule:nonzero;stroke:none"
             id="path36"
             inkscape:connector-curvature="0" /><path
             d="m 1694.58,116.871 c -21.21,0 -38.48,-17.2616 -38.48,-38.4804 0,-21.1992 17.27,-38.4492 38.48,-38.4492 21.2,0 38.45,17.25 38.45,38.4492 0,21.2188 -17.25,38.4804 -38.45,38.4804 z M 1694.58,0 c -43.24,0 -78.42,35.1719 -78.42,78.3906 0,43.2384 35.18,78.4294 78.42,78.4294 43.22,0 78.39,-35.191 78.39,-78.4294 C 1772.97,35.1719 1737.8,0 1694.58,0"
             style="fill:#f24f9b;fill-opacity:1;fill-rule:nonzero;stroke:none"
             id="path38"
             inkscape:connector-curvature="0" /><path
             d="m 2034.96,1191.89 c 0,-32.28 -26.15,-58.43 -58.42,-58.43 -32.28,0 -58.47,26.15 -58.47,58.43 0,32.25 26.19,58.45 58.47,58.45 32.27,0 58.42,-26.2 58.42,-58.45"
             style="fill:#ffffff;fill-opacity:1;fill-rule:nonzero;stroke:none"
             id="path40"
             inkscape:connector-curvature="0" /><path
             d="m 1976.54,1230.37 c -21.23,0 -38.5,-17.26 -38.5,-38.48 0,-21.2 17.27,-38.45 38.5,-38.45 21.2,0 38.45,17.25 38.45,38.45 0,21.22 -17.25,38.48 -38.45,38.48 z m 0,-116.87 c -43.26,0 -78.44,35.16 -78.44,78.39 0,43.25 35.18,78.42 78.44,78.42 43.23,0 78.39,-35.17 78.39,-78.42 0,-43.23 -35.16,-78.39 -78.39,-78.39"
             style="fill:#f24f9b;fill-opacity:1;fill-rule:nonzero;stroke:none"
             id="path42"
             inkscape:connector-curvature="0" /><path
             d="m 1264.68,907.762 c -10.55,0 -20.03,-3.739 -28.23,-11.16 -8.51,-7.747 -12.83,-19.563 -12.83,-35.133 0,-17.469 -3.37,-22.098 -3.73,-22.547 -0.03,-0.031 -2.83,-3.262 -16.73,-3.262 l -101.76,0 c -66.82,0 -93.58,7.078 -104.255,13.02 -16.192,9.019 -19.594,37.539 -19.594,59.875 l 0,200.515 c 0,31.7 6.394,52.35 18.457,59.7 9.972,6.02 33.992,13.21 91.702,13.21 l 115.45,0 c 13.81,0 16.7,-3.34 16.72,-3.37 0.38,-0.47 3.74,-5.07 3.74,-22.45 0,-15.61 4.31,-27.46 12.9,-35.32 8.22,-7.35 17.69,-11.07 28.16,-11.07 12.32,0 40.99,4.66 40.99,47.93 0,30.46 -6.51,55.63 -19.38,74.85 -14.09,20.89 -40.27,31.47 -77.83,31.47 l -120.75,0 c -64.59,0 -111.28,-10.05 -142.745,-30.73 -32.82,-21.57 -49.461,-62.86 -49.461,-122.72 l 0,-203.558 c 0,-59.942 17.223,-101.274 51.184,-122.84 32.371,-20.57 82.972,-30.57 154.712,-30.57 l 107.06,0 c 37.58,0 63.75,10.429 77.78,31 12.9,18.878 19.43,43.949 19.43,74.519 0,43.906 -28.67,48.641 -40.99,48.641"
             style="fill:#100f0d;fill-opacity:1;fill-rule:nonzero;stroke:none"
             id="path44"
             inkscape:connector-curvature="0" /><path
             d="m 1577.71,1014.36 c 0,-51.005 -41.26,-92.329 -92.27,-92.329 -50.99,0 -92.36,41.324 -92.36,92.329 0,51.04 41.37,92.3 92.36,92.3 51.01,0 92.27,-41.26 92.27,-92.3"
             style="fill:#ffffff;fill-opacity:1;fill-rule:nonzero;stroke:none"
             id="path46"
             inkscape:connector-curvature="0" /><path
             d="m 1485.44,1072.45 c -32.07,0 -58.15,-26.06 -58.15,-58.09 0,-32.051 26.08,-58.122 58.15,-58.122 32.01,0 58.06,26.071 58.06,58.122 0,32.03 -26.05,58.09 -58.06,58.09 z m 0,-184.63 c -69.8,0 -126.57,56.758 -126.57,126.54 0,69.75 56.77,126.51 126.57,126.51 69.74,0 126.47,-56.76 126.47,-126.51 0,-69.782 -56.73,-126.54 -126.47,-126.54"
             style="fill:#100f0d;fill-opacity:1;fill-rule:nonzero;stroke:none"
             id="path48"
             inkscape:connector-curvature="0" /></g></g></g></g></svg>