<?xml version="1.0" encoding="UTF-8"?>
<svg width="330pt" version="1.1" xmlns="http://www.w3.org/2000/svg" height="191pt" viewBox="0 0 330 191" xmlns:xlink="http://www.w3.org/1999/xlink">
 <defs>
  <clipPath id="Clip0">
   <path d="M0 0 L0 190.62 L329.678 190.62 L329.678 0 L0 0 Z" transform="translate(0, 0.379883)"/>
  </clipPath>
 </defs>
 <g id="Background">
  <g id="Group1" clip-path="url(#Clip0)">
   <path style="fill:#ec6894; fill-rule:nonzero;stroke:none;" d="M13.584 148.502 L213.635 177.189 L158.319 2.34961 L2.12109 42.5029 L13.584 148.502 Z M216.432 179.56 L214.895 179.341 L11.8076 150.219 L0 41.0342 L159.622 0 L159.9 0.87988 L216.432 179.56 Z" transform="translate(5.16309, 5.42871)"/>
   <path style="fill:#ec6894; fill-rule:nonzero;stroke:none;" d="M130.409 176.089 L0 98.7409 L78.162 0 L79.691 1.21093 L2.916 98.202 L131.405 174.411 L130.409 176.089 Z" transform="translate(85.207, 5.99805)"/>
   <path style="fill:#ec6894; fill-rule:nonzero;stroke:none;" d="M1.1514 51.893 L0 50.319 L68.8066 0 L69.957 1.574 L1.1514 51.893 Z" transform="translate(17.2832, 103.683)"/>
   <path style="fill:#ec6894; fill-rule:nonzero;stroke:none;" d="M80.4414 58.8617 L0 1.5889 L1.13183 0 L81.5742 57.2717 L80.4414 58.8617 Z" transform="translate(5.65723, 46.4033)"/>
   <path style="fill:#ffffff; fill-rule:nonzero;stroke:none;" d="M9.27349 4.6475 C9.27349 7.2373 7.23731 9.3174 4.63672 9.3174 C2.1045 9.3174 0 7.2373 0 4.6475 C0 2.1143 2.1045 0 4.63672 0 C7.23731 0 9.27349 2.1143 9.27349 4.6475 Z" transform="translate(1.58691, 42.5498)"/>
   <path style="fill:#ec6894; fill-rule:nonzero;stroke:none;" d="M6.22363 3.1748 C4.57031 3.1748 3.1748 4.5762 3.1748 6.2344 C3.1748 7.9346 4.54199 9.3174 6.22363 9.3174 C7.93359 9.3174 9.27246 7.9629 9.27246 6.2344 C9.27246 4.5469 7.90527 3.1748 6.22363 3.1748 Z M6.22363 12.4922 C2.79199 12.4922 0 9.6846 0 6.2344 C0 2.7969 2.79199 0 6.22363 0 C9.65527 0 12.4473 2.7969 12.4473 6.2344 C12.4473 9.7432 9.71387 12.4922 6.22363 12.4922 Z" transform="translate(0, 40.9629)"/>
   <path style="fill:#ffffff; fill-rule:nonzero;stroke:none;" d="M4.703 0 C7.202 0 9.305 2.11426 9.305 4.63575 C9.305 7.23633 7.202 9.31743 4.703 9.31743 C2.114 9.31743 0 7.23633 0 4.63575 C0 2.11426 2.114 0 4.703 0 Z" transform="translate(158.39, 1.96777)"/>
   <path style="fill:#ec6894; fill-rule:nonzero;stroke:none;" d="M6.291 3.17481 C4.602 3.17481 3.175 4.57129 3.175 6.22364 C3.175 7.92969 4.573 9.31739 6.291 9.31739 C7.953 9.31739 9.306 7.92969 9.306 6.22364 C9.306 4.57129 7.926 3.17481 6.291 3.17481 Z M6.291 12.4922 C2.823 12.4922 0 9.67972 0 6.22364 C0 2.792 2.823 0 6.291 0 C9.646 0 12.481 2.84961 12.481 6.22364 C12.481 9.67972 9.704 12.4922 6.291 12.4922 Z" transform="translate(156.802, 0.379883)"/>
   <path style="fill:#ffffff; fill-rule:nonzero;stroke:none;" d="M4.6367 0 C7.1699 0 9.2724 2.001 9.2724 4.501 C9.2724 7.202 7.1699 9.204 4.6367 9.204 C2.0703 9.204 0 7.202 0 4.501 C0 2.001 2.0703 0 4.6367 0 Z" transform="translate(13.2227, 150.288)"/>
   <path style="fill:#ec6894; fill-rule:nonzero;stroke:none;" d="M6.2237 3.176 C4.542 3.176 3.1748 4.483 3.1748 6.089 C3.1748 7.866 4.4844 9.204 6.2237 9.204 C7.9327 9.204 9.2715 7.836 9.2715 6.089 C9.2715 4.483 7.9043 3.176 6.2237 3.176 Z M6.2237 12.38 C2.7334 12.38 0 9.617 0 6.089 C0 2.732 2.7911 0 6.2237 0 C9.6543 0 12.4463 2.732 12.4463 6.089 C12.4463 9.617 9.7129 12.38 6.2237 12.38 Z" transform="translate(11.6357, 148.7)"/>
   <path style="fill:#ffffff; fill-rule:nonzero;stroke:none;" d="M4.635 0 C7.135 0 9.283 2.07 9.283 4.569 C9.283 7.136 7.135 9.272 4.635 9.272 C2.012 9.272 0 7.136 0 4.569 C0 2.07 2.012 0 4.635 0 Z" transform="translate(214.52, 180.14)"/>
   <path style="fill:#ec6894; fill-rule:nonzero;stroke:none;" d="M6.223 3.176 C4.514 3.176 3.175 4.485 3.175 6.157 C3.175 7.904 4.514 9.272 6.223 9.272 C7.853 9.272 9.283 7.817 9.283 6.157 C9.283 4.568 7.853 3.176 6.223 3.176 Z M6.223 12.448 C2.792 12.448 0 9.626 0 6.157 C0 2.763 2.792 0 6.223 0 C9.603 0 12.459 2.82 12.459 6.157 C12.459 9.567 9.603 12.448 6.223 12.448 Z" transform="translate(212.932, 178.552)"/>
   <path style="fill:#0b0f07; fill-rule:nonzero;stroke:none;" d="M7.9405 7.5644 C8.7647 7.0761 10.7022 6.4941 15.2452 6.4941 L24.4268 6.4941 C25.4991 6.4941 25.7256 6.7412 25.7862 6.8173 C25.8663 6.9111 26.0762 7.4013 26.0762 8.5273 C26.0762 9.791 26.3838 10.7119 27.0176 11.3437 L27.0918 11.4121 C27.7286 11.9375 28.4961 12.2158 29.3116 12.2158 C30.295 12.2158 32.5821 11.8466 32.5821 8.4257 C32.5821 6 32.0616 4.0097 31.0401 2.5166 C29.9024 0.8222 27.875 0 24.8457 0 L15.2452 0 C10.1954 0 6.3838 0.8164 3.9219 2.4248 C1.3204 4.1132 0 7.4023 0 12.2021 L0 28.3717 C0 33.1547 1.3702 36.4357 4.045 38.1067 C6.5235 39.7677 10.5381 40.5757 16.3194 40.5757 L24.8457 40.5757 C27.8086 40.5757 29.8916 39.7277 31.0401 38.0477 C32.0772 36.5047 32.5821 34.5757 32.5821 32.1497 C32.5821 28.6657 30.295 28.2897 29.3116 28.2897 C28.4747 28.2897 27.6914 28.6057 27.0625 29.1887 C26.417 29.7627 26.0762 30.7237 26.0762 31.9677 C26.0762 32.9727 25.9209 33.5077 25.7686 33.7917 C25.6231 33.8807 25.208 34.0357 24.4268 34.0357 L16.3194 34.0357 C12.0625 34.0357 9.2862 33.6777 8.0596 32.9677 C7.0284 32.3817 6.5069 30.7867 6.5069 28.2257 L6.5069 12.3046 C6.5069 9.7578 6.9981 8.1582 7.9405 7.5644 Z" transform="translate(40.4941, 84.2393)"/>
   <path style="fill:#0b0f07; fill-rule:nonzero;stroke:none;" d="M23.342 0 C22.151 0 21.14 0.5859 20.356 1.7168 L13.193 11.6455 L6.145 1.7871 C5.193 0.3105 3.97 0 3.113 0 C1.608 0 0 0.9277 0 3.5312 L0 28.5653 C0 30.7183 1.261 32.1083 3.214 32.1083 C4.757 32.1083 6.405 31.1333 6.405 28.3953 L6.405 12.0983 L10.678 18.1533 L10.805 18.3113 C11.424 18.9903 12.27 19.3643 13.187 19.3643 C14.508 19.3643 15.283 18.7583 15.702 18.2503 L20.048 12.0983 L20.048 28.3953 C20.048 31.1333 21.697 32.1083 23.24 32.1083 C25.22 32.1083 26.499 30.7183 26.499 28.5653 L26.499 3.5312 C26.499 0.9248 24.798 0 23.342 0 Z" transform="translate(106.824, 88.2637)"/>
   <path style="fill:#0b0f07; fill-rule:nonzero;stroke:none;" d="M23.341 0 C22.151 0 21.14 0.5859 20.353 1.7207 L13.233 11.6445 L6.156 1.7871 C5.391 0.6015 4.371 0 3.124 0 C1.683 0 0 0.9248 0 3.5312 L0 28.5653 C0 30.7183 1.253 32.1083 3.191 32.1083 C4.751 32.1083 6.417 31.1333 6.417 28.3953 L6.417 12.0793 L10.725 18.1563 L10.797 18.2503 C11.215 18.7583 11.978 19.3643 13.233 19.3643 C14.219 19.3643 15.038 19.0043 15.666 18.2933 L20.047 12.0993 L20.047 28.3953 C20.047 31.1363 21.748 32.1083 23.205 32.1083 C25.206 32.1083 26.499 30.7183 26.499 28.5653 L26.499 3.5312 C26.499 0.9248 24.798 0 23.341 0 Z" transform="translate(146.536, 88.2637)"/>
   <path style="fill:#0b0f07; fill-rule:nonzero;stroke:none;" d="M20.673 0 L3.565 0 C2.464 0 1.607 0.333 0.921 1.042 C0.319 1.6924 0 2.4707 0 3.2929 C0 4.0859 0.361 4.9189 0.91 5.4648 C1.576 6.1963 2.444 6.5527 3.565 6.5527 L8.717 6.5527 L8.717 28.6793 C8.717 29.7963 9.107 30.7383 9.815 31.3443 C10.391 31.8813 11.219 32.1763 12.159 32.1763 C12.984 32.1763 13.793 31.8883 14.447 31.3663 C15.656 30.5183 15.656 29.1393 15.656 28.6793 L15.656 6.5527 L20.673 6.5527 C23.301 6.5527 24.238 4.8867 24.238 3.3271 C24.238 1.7187 23.301 0 20.673 0 Z" transform="translate(212.685, 88.2637)"/>
   <path style="fill:#0b0f07; fill-rule:nonzero;stroke:none;" d="M3.293 0 C1.323 0 0 1.4052 0 3.497 L0 29.0173 C0 31.0683 1.297 32.4473 3.227 32.4473 C5.258 32.4473 6.521 31.1333 6.521 29.0173 L6.521 3.497 C6.521 1.373 5.253 0 3.293 0 Z" transform="translate(249.66, 88.2637)"/>
   <path style="fill:#0b0f07; fill-rule:nonzero;stroke:none;" d="M28.588 0 C27.655 0 25.486 0.3691 25.486 3.79 L25.486 28.7599 L6.191 1.7851 C5.286 0.5673 4.261 0 2.965 0 C1.858 0 0 0.4707 0 3.621 L0 37.0339 C0 40.1749 1.986 40.6439 3.17 40.6439 C5.195 40.6439 6.405 39.3579 6.405 37.2039 L6.405 11.9326 L26.192 39.7349 C26.64 40.3289 27.516 40.6439 28.725 40.6439 C30.707 40.6439 31.892 39.2939 31.892 37.0339 L31.892 3.621 C31.892 0.4707 29.821 0 28.588 0 Z" transform="translate(297.786, 83.9561)"/>
   <path style="fill:#ffffff; fill-rule:nonzero;stroke:none;" d="M14.6553 7.3051 C14.6553 11.3971 11.3994 14.6881 7.3067 14.6881 C3.291 14.6881 0 11.3971 0 7.3051 C0 3.2911 3.291 0 7.3067 0 C11.3994 0 14.6553 3.2911 14.6553 7.3051 Z" transform="translate(80.0156, 96.7129)"/>
   <path style="fill:#0b0f07; fill-rule:nonzero;stroke:none;" d="M10.0254 5.4375 C7.4961 5.4375 5.4385 7.4949 5.4385 10.0239 C5.4385 12.5959 7.4961 14.6889 10.0254 14.6889 C12.6211 14.6889 14.6552 12.6399 14.6552 10.0239 C14.6552 7.4949 12.5781 5.4375 10.0254 5.4375 Z M10.0254 20.1259 C4.497 20.1259 0 15.5939 0 10.0239 C0 4.4961 4.497 0 10.0254 0 C15.5761 0 20.0927 4.4961 20.0927 10.0239 C20.0927 15.5939 15.5761 20.1259 10.0254 20.1259 Z" transform="translate(77.2969, 93.9941)"/>
   <path style="fill:#ffffff; fill-rule:nonzero;stroke:none;" d="M14.642 7.3051 C14.642 11.3971 11.352 14.6881 7.304 14.6881 C3.29 14.6881 0 11.3971 0 7.3051 C0 3.2911 3.29 0 7.304 0 C11.352 0 14.642 3.2911 14.642 7.3051 Z" transform="translate(187.269, 96.7129)"/>
   <path style="fill:#0b0f07; fill-rule:nonzero;stroke:none;" d="M10.023 5.4375 C7.495 5.4375 5.437 7.4949 5.437 10.0239 C5.437 12.5959 7.495 14.6889 10.023 14.6889 C12.57 14.6889 14.642 12.5959 14.642 10.0239 C14.642 7.4949 12.57 5.4375 10.023 5.4375 Z M10.023 20.1259 C4.496 20.1259 0 15.5939 0 10.0239 C0 4.4961 4.496 0 10.023 0 C15.569 0 20.08 4.4961 20.08 10.0239 C20.08 15.5939 15.569 20.1259 10.023 20.1259 Z" transform="translate(184.55, 93.9941)"/>
   <path style="fill:#ffffff; fill-rule:nonzero;stroke:none;" d="M14.675 7.3051 C14.675 11.3971 11.42 14.6881 7.337 14.6881 C3.324 14.6881 0 11.3971 0 7.3051 C0 3.2911 3.324 0 7.337 0 C11.42 0 14.675 3.2911 14.675 7.3051 Z" transform="translate(268.684, 96.7129)"/>
   <path style="fill:#0b0f07; fill-rule:nonzero;stroke:none;" d="M10.056 5.4375 C7.553 5.4375 5.437 7.5379 5.437 10.0239 C5.437 12.5959 7.51 14.6889 10.056 14.6889 C12.646 14.6889 14.676 12.6399 14.676 10.0239 C14.676 7.4949 12.603 5.4375 10.056 5.4375 Z M10.056 20.1259 C4.512 20.1259 0 15.5939 0 10.0239 C0 4.4961 4.512 0 10.056 0 C15.601 0 20.113 4.4961 20.113 10.0239 C20.113 15.5939 15.601 20.1259 10.056 20.1259 Z" transform="translate(265.965, 93.9941)"/>
  </g>
 </g>
</svg>
