<?xml version="1.0" encoding="UTF-8"?>
<svg width="207pt" version="1.1" xmlns="http://www.w3.org/2000/svg" height="192pt" viewBox="0 0 207 192" xmlns:xlink="http://www.w3.org/1999/xlink">
 <defs>
  <clipPath id="Clip0">
   <path d="M0 0 L0 191.061 L206.795 191.061 L206.795 0 L0 0 Z" transform="translate(0, 0.939453)"/>
  </clipPath>
 </defs>
 <g id="Background">
  <g id="Group1" clip-path="url(#Clip0)">
   <path style="fill:#ffffff; fill-rule:nonzero;stroke:none;" d="M19.7089 9.85648 C19.7089 15.2998 15.3007 19.708 9.85744 19.708 C4.417 19.708 0 15.2998 0 9.85648 C0 4.41601 4.417 0 9.85744 0 C15.3007 0 19.7089 4.41601 19.7089 9.85648 Z" transform="translate(3.36816, 4.30762)"/>
   <path style="fill:#9f9e9a; fill-rule:nonzero;stroke:none;" d="M13.2256 6.73633 C9.64648 6.73633 6.73633 9.64645 6.73633 13.2246 C6.73633 16.7998 9.64648 19.708 13.2256 19.708 C16.8008 19.708 19.709 16.7998 19.709 13.2246 C19.709 9.64645 16.8008 6.73633 13.2256 6.73633 Z M13.2256 26.4443 C5.93262 26.4443 0 20.5136 0 13.2246 C0 5.93262 5.93262 0 13.2256 0 C20.5146 0 26.4443 5.93262 26.4443 13.2246 C26.4443 20.5136 20.5146 26.4443 13.2256 26.4443 Z" transform="translate(0, 0.939453)"/>
   <path style="fill:#ffffff; fill-rule:nonzero;stroke:none;" d="M19.709 9.857 C19.709 15.301 15.3008 19.709 9.8565 19.709 C4.417 19.709 0 15.301 0 9.857 C0 4.417 4.417 0 9.8565 0 C15.3008 0 19.709 4.417 19.709 9.857 Z" transform="translate(16.123, 109.134)"/>
   <path style="fill:#9f9e9a; fill-rule:nonzero;stroke:none;" d="M13.2246 6.736 C9.6474 6.736 6.7363 9.647 6.7363 13.225 C6.7363 16.8 9.6474 19.709 13.2246 19.709 C16.8008 19.709 19.709 16.8 19.709 13.225 C19.709 9.647 16.8008 6.736 13.2246 6.736 Z M13.2246 26.445 C5.9326 26.445 0 20.514 0 13.225 C0 5.932 5.9326 0 13.2246 0 C20.5146 0 26.4453 5.932 26.4453 13.225 C26.4453 20.514 20.5146 26.445 13.2246 26.445 Z" transform="translate(12.7549, 105.766)"/>
   <path style="fill:#ffffff; fill-rule:nonzero;stroke:none;" d="M19.709 9.856 C19.709 15.302 15.301 19.709 9.857 19.709 C4.416 19.709 0 15.302 0 9.856 C0 4.416 4.416 0 9.857 0 C15.301 0 19.709 4.416 19.709 9.856 Z" transform="translate(132.307, 168.923)"/>
   <path style="fill:#9f9e9a; fill-rule:nonzero;stroke:none;" d="M13.225 6.736 C9.646 6.736 6.736 9.646 6.736 13.224 C6.736 16.8 9.646 19.709 13.225 19.709 C16.8 19.709 19.709 16.8 19.709 13.224 C19.709 9.646 16.8 6.736 13.225 6.736 Z M13.225 26.445 C5.933 26.445 0 20.514 0 13.224 C0 5.932 5.933 0 13.225 0 C20.515 0 26.445 5.932 26.445 13.224 C26.445 20.514 20.515 26.445 13.225 26.445 Z" transform="translate(128.939, 165.555)"/>
   <path style="fill:#ffffff; fill-rule:nonzero;stroke:none;" d="M19.71 9.8564 C19.71 15.3018 15.303 19.709 9.858 19.709 C4.417 19.709 0 15.3018 0 9.8564 C0 4.418 4.417 0 9.858 0 C15.303 0 19.71 4.418 19.71 9.8564 Z" transform="translate(183.717, 31.9209)"/>
   <path style="fill:#9f9e9a; fill-rule:nonzero;stroke:none;" d="M13.226 6.7364 C9.648 6.7364 6.736 9.6465 6.736 13.2246 C6.736 16.8008 9.648 19.709 13.226 19.709 C16.801 19.709 19.71 16.8008 19.71 13.2246 C19.71 9.6465 16.801 6.7364 13.226 6.7364 Z M13.226 26.4453 C5.933 26.4453 0 20.5147 0 13.2246 C0 5.9327 5.933 0 13.226 0 C20.516 0 26.446 5.9327 26.446 13.2246 C26.446 20.5147 20.516 26.4453 13.226 26.4453 Z" transform="translate(180.349, 28.5527)"/>
   <path style="fill:#0b0f07; fill-rule:nonzero;stroke:none;" d="M62.2551 60.0769 C60.4721 60.0769 58.8731 60.7089 57.4931 61.9609 C56.0621 63.2699 55.3361 65.2629 55.3361 67.8829 C55.3361 70.8279 54.7681 71.6079 54.7051 71.6869 C54.7001 71.6919 54.2271 72.2369 51.8791 72.2369 L34.7178 72.2369 C23.4541 72.2369 18.9415 71.0429 17.1416 70.0409 C14.4092 68.5189 13.837 63.7089 13.837 59.9409 L13.837 26.1308 C13.837 20.7851 14.9161 17.3017 16.9493 16.0644 C18.6329 15.0478 22.6836 13.8359 32.4141 13.8359 L51.8791 13.8359 C54.2121 13.8359 54.7001 14.3984 54.7041 14.4033 C54.8091 14.5332 55.3361 15.3242 55.3361 18.1904 C55.3361 20.8242 56.0631 22.8232 57.5071 24.1425 C58.8891 25.3837 60.4861 26.0136 62.2551 26.0136 C64.3351 26.0136 69.1721 25.2255 69.1721 17.9287 C69.1721 12.7968 68.0731 8.5527 65.8991 5.3085 C63.5261 1.7851 59.1101 0 52.7761 0 L32.4141 0 C21.5215 0 13.6475 1.6953 8.3409 5.1835 C2.8057 8.8232 0 15.7861 0 25.8789 L0 60.2029 C0 70.3109 2.9043 77.2799 8.6329 80.9179 C14.0909 84.3869 22.6231 86.0729 34.7178 86.0729 L52.7761 86.0729 C59.1121 86.0729 63.5251 84.3159 65.8911 80.8489 C68.0691 77.6599 69.1721 73.4319 69.1721 68.2789 C69.1721 60.8759 64.3351 60.0769 62.2551 60.0769 Z" transform="translate(59.6689, 44.0811)"/>
   <path style="fill:#ffffff; fill-rule:nonzero;stroke:none;" d="M31.128 15.5664 C31.128 24.166 24.17 31.1338 15.57 31.1338 C6.971 31.1338 0 24.166 0 15.5664 C0 6.9589 6.971 0 15.57 0 C24.17 0 31.128 6.9589 31.128 15.5664 Z" transform="translate(143.58, 70.6182)"/>
   <path style="fill:#0b0f07; fill-rule:nonzero;stroke:none;" d="M21.339 11.5381 C15.935 11.5381 11.537 15.9336 11.537 21.336 C11.537 26.7383 15.935 31.1348 21.339 31.1348 C26.737 31.1348 31.129 26.7383 31.129 21.336 C31.129 15.9336 26.737 11.5381 21.339 11.5381 Z M21.339 42.6724 C9.572 42.6724 0 33.1006 0 21.336 C0 9.5713 9.572 0 21.339 0 C33.099 0 42.666 9.5713 42.666 21.336 C42.666 33.1006 33.099 42.6724 21.339 42.6724 Z" transform="translate(137.811, 64.8486)"/>
  </g>
 </g>
</svg>
